<svg xmlns="http://www.w3.org/2000/svg" viewBox="0 0 1692 489" fill="#5bb54e"><g transform="translate(0,489) scale(0.025,-0.025)"><path d="M11385 19165 c-989 -97 -2210 -451 -3150 -915 -927 -458 -1684 -1013
-2480 -1821 -1044 -1060 -1688 -2108 -2222 -3619 -209 -593 -173 -536 -396
-615 -106 -37 -633 -215 -1172 -395 -1346 -450 -1304 -431 -1466 -660 -76
-109 -76 -109 -98 -243 -28 -177 -28 -178 22 -354 43 -151 43 -151 153 -275
109 -123 109 -123 269 -187 314 -125 62 -191 3290 855 2381 772 2624 847 3045
934 1065 220 2062 143 3210 -249 307 -104 669 -262 1600 -696 2332 -1087 3038
-1346 4280 -1570 140 -25 261 -48 269 -51 8 -2 -105 -80 -250 -173 -923 -588
-1623 -1171 -3069 -2551 -1443 -1379 -2018 -1867 -2635 -2240 -1258 -760
-2969 -859 -3801 -220 -212 162 -656 593 -640 619 7 10 861 292 1331 440 421
132 832 261 1715 539 366 116 805 254 975 307 908 286 1040 349 1207 581 111
155 106 143 134 311 25 145 25 145 -17 281 -52 174 -50 170 -175 309 -106 118
-229 196 -386 243 -154 47 -640 -87 -2758 -760 -4048 -1285 -6264 -1995 -6469
-2071 -65 -24 -107 -50 -191 -115 -132 -103 -116 -82 -184 -248 -56 -139 -56
-139 -56 -329 0 -191 0 -191 74 -322 73 -128 189 -234 341 -312 73 -38 323
-67 427 -50 213 35 935 236 1748 487 432 133 665 200 695 199 41 -1 118 -79
291 -294 1269 -1575 3229 -2796 5284 -3291 835 -202 1213 -245 2165 -247 1071
-3 1585 71 2648 377 2201 635 3850 1780 5124 3556 437 610 912 1472 1017 1848
70 248 -61 597 -277 736 -209 134 -186 125 -369 147 -165 20 -165 20 -279 -12
-143 -39 -136 -35 -252 -155 -97 -101 -97 -101 -343 -540 -575 -1028 -986
-1570 -1699 -2243 -856 -808 -1540 -1249 -2545 -1641 -1666 -649 -3494 -765
-5090 -321 -218 60 -540 174 -540 190 0 3 125 48 278 100 1035 351 1382 526
2158 1092 493 359 820 647 1764 1554 1326 1273 1746 1649 2430 2167 1215 920
1959 1315 3532 1872 760 269 804 293 1000 544 87 112 123 331 86 518 -35 172
-29 162 -169 349 -64 87 -70 92 -185 157 -225 126 -391 133 -1384 63 -992 -70
-1278 -70 -1990 6 -1351 143 -2463 507 -4195 1371 -447 223 -988 510 -978 518
68 59 5686 1913 6383 2107 186 51 206 45 489 -131 983 -612 2330 -268 2872
733 749 1383 -230 3072 -1779 3071 -368 0 -579 -48 -880 -199 -750 -375 -1119
-944 -1237 -1900 -8 -69 -18 -128 -22 -132 -5 -4 -195 -68 -423 -144 -228 -75
-1272 -422 -2320 -770 -5711 -1899 -5574 -1856 -5795 -1834 -55 6 -140 14
-190 19 -220 22 -893 34 -1224 22 -595 -22 -906 -91 -2240 -501 -288 -89 -526
-160 -528 -157 -21 21 284 657 439 916 540 898 1044 1495 1878 2226 861 755
1954 1281 3292 1584 519 118 1099 170 1748 157 654 -14 1069 -78 1990 -307
713 -177 700 -175 855 -161 130 12 130 12 272 98 149 90 162 103 344 348 4 6
17 80 29 165 21 155 21 155 -39 315 -103 272 -288 429 -628 534 -433 133
-1408 354 -1764 400 -472 62 -1774 95 -2174 56z m8725 -2190 c330 -77 490
-290 491 -652 1 -129 -8 -160 -64 -243 -333 -486 -1033 -365 -1157 200 -83
381 341 785 730 695z M37051 15364 c-261 -38 -531 -207 -625 -391 -102 -203
-60 -733 74 -935 301 -450 907 -488 1328 -84 194 186 242 286 242 502 0 556
-481 985 -1019 908z M58930 15363 c-250 -43 -518 -251 -570 -442 -54 -199 -80
-1720 -80 -4691 0 -2926 29 -3560 169 -3763 49 -70 270 -186 424 -221 353 -82
813 123 905 405 117 353 132 941 132 5121 0 2987 0 2987 -99 3130 -251 362
-550 518 -881 461z M55440 15260 c-463 -61 -956 -277 -1288 -564 -427 -369
-785 -1105 -832 -1706 -24 -318 -86 -388 -370 -424 -319 -40 -574 -274 -649
-595 -90 -384 264 -883 670 -945 349 -53 348 -44 349 -2870 0 -1569 -25 -1408
259 -1683 372 -360 946 -298 1216 131 145 229 146 245 151 2456 5 1840 4 1823
56 1887 54 68 65 70 513 77 595 11 833 44 1052 146 417 196 626 648 456 984
-186 367 -303 402 -1362 415 -616 7 -616 7 -667 34 -96 49 -110 114 -70 313
55 271 176 449 436 644 208 155 283 169 640 115 677 -103 1055 78 1115 535 85
646 -752 1171 -1675 1050z M29655 15100 c-449 -12 -535 -38 -704 -213 -86 -89
-100 -748 -107 -5032 -6 -3120 -6 -3120 189 -3307 107 -103 222 -205 254 -227
223 -148 467 -140 828 26 333 154 355 253 355 1625 0 711 2 744 48 809 57 79
3 73 787 80 787 7 944 15 1300 65 1143 162 1835 684 2315 1744 676 1492 39
3296 -1445 4098 -606 327 -582 322 -1572 332 -991 10 -1842 10 -2248 0z m2135
-1690 c363 -14 617 -50 768 -106 843 -318 1173 -1391 660 -2151 -347 -516
-861 -671 -2193 -661 -455 3 -447 2 -507 72 -50 57 -49 45 -46 1421 3 1290 3
1290 25 1331 23 42 56 70 108 91 38 15 836 17 1185 3z M42217 12709 c-854 -70
-1503 -424 -2113 -1154 -1052 -1258 -998 -3027 130 -4237 888 -953 1966 -1295
3100 -983 683 188 1261 613 1293 951 25 271 -228 666 -544 848 -234 135 -334
132 -640 -15 -301 -145 -467 -202 -656 -228 -810 -111 -1600 474 -1726 1277
-127 811 245 1517 951 1803 407 164 784 153 1253 -38 455 -186 660 -191 926
-21 318 202 518 694 379 929 -141 238 -456 512 -720 626 -437 189 -1095 287
-1633 242z M61500 12704 c-202 -22 -300 -82 -408 -248 -158 -247 -170 -215
890 -2521 652 -1419 1218 -2706 1273 -2896 23 -83 13 -112 -153 -422 -366
-686 -531 -803 -1197 -852 -292 -21 -386 -49 -523 -158 -420 -333 -131 -1081
509 -1315 799 -293 1820 149 2361 1023 168 272 2749 5926 2955 6475 110 292
135 438 89 529 -41 80 -213 260 -288 302 -294 163 -915 99 -1179 -122 -83 -69
-178 -267 -726 -1514 -785 -1784 -793 -1799 -954 -1769 -135 26 -151 56 -504
924 -499 1229 -1056 2330 -1227 2429 -131 75 -342 117 -738 145 -30 2 -111 -2
-180 -10z M48365 12700 c-686 -26 -1248 -266 -1775 -759 -673 -629 -991 -1194
-1105 -1958 -222 -1496 628 -2935 2085 -3532 2073 -850 4431 885 4336 3189
-53 1263 -897 2445 -2058 2880 -281 105 -927 201 -1259 188 -24 -1 -125 -4
-224 -8z m590 -1650 c615 -94 1060 -532 1200 -1182 170 -790 -165 -1503 -861
-1833 -538 -256 -1161 -145 -1652 294 -990 884 -438 2597 883 2741 136 14 239
10 430 -20z M36952 12620 c-183 -48 -401 -235 -447 -383 -55 -181 -69 -876
-62 -3017 9 -2730 8 -2719 442 -2902 484 -203 998 23 1086 477 144 738 146
4700 3 5378 -65 313 -616 553 -1022 447z M22613 12289 c-114 -56 -171 -171
-184 -371 -32 -492 -54 -541 -380 -873 -370 -378 -407 -438 -345 -570 53 -116
161 -165 504 -230 438 -84 512 -121 709 -352 222 -259 379 -336 541 -264 118
53 163 152 242 531 65 315 90 351 436 641 352 294 410 389 329 537 -63 116
-148 155 -535 243 -451 102 -411 82 -686 349 -362 353 -493 427 -631 359z
M8825 10589 c-363 -90 -2752 -851 -6230 -1985 -1238 -404 -1422 -482 -1535
-648 -324 -481 -54 -1113 501 -1170 204 -22 401 36 3459 1017 146 47 506 163
800 257 2488 798 2701 868 3135 1020 300 106 312 111 378 157 444 310 384
1020 -106 1266 -143 72 -313 108 -402 86z"/></g></svg>